<mxfile host="app.diagrams.net" modified="2021-04-21T04:01:05.804Z" agent="5.0 (Windows NT 10.0; Win64; x64) AppleWebKit/537.36 (KHTML, like Gecko) Chrome/89.0.4389.128 Safari/537.36 Edg/89.0.774.77" etag="2msn2AhihDJR5Xfb-8MJ" version="14.6.3" type="github">
  <diagram id="xy7natfM6xAFFrIgTaK-" name="Page-1">
    <mxGraphModel dx="1552" dy="691" grid="1" gridSize="10" guides="1" tooltips="1" connect="1" arrows="1" fold="1" page="1" pageScale="1" pageWidth="850" pageHeight="1100" math="0" shadow="0">
      <root>
        <mxCell id="0" />
        <mxCell id="1" parent="0" />
        <mxCell id="wH9C-k489aPXXMVzoPA0-1" value="log_in" style="swimlane;fontStyle=1;childLayout=stackLayout;horizontal=1;startSize=26;horizontalStack=0;resizeParent=1;resizeParentMax=0;resizeLast=0;collapsible=1;marginBottom=0;align=center;fontSize=14;" vertex="1" parent="1">
          <mxGeometry x="410" y="10" width="160" height="86" as="geometry" />
        </mxCell>
        <mxCell id="wH9C-k489aPXXMVzoPA0-2" value="username" style="text;strokeColor=none;fillColor=none;spacingLeft=4;spacingRight=4;overflow=hidden;rotatable=0;points=[[0,0.5],[1,0.5]];portConstraint=eastwest;fontSize=12;" vertex="1" parent="wH9C-k489aPXXMVzoPA0-1">
          <mxGeometry y="26" width="160" height="30" as="geometry" />
        </mxCell>
        <mxCell id="wH9C-k489aPXXMVzoPA0-3" value="password" style="text;strokeColor=none;fillColor=none;spacingLeft=4;spacingRight=4;overflow=hidden;rotatable=0;points=[[0,0.5],[1,0.5]];portConstraint=eastwest;fontSize=12;" vertex="1" parent="wH9C-k489aPXXMVzoPA0-1">
          <mxGeometry y="56" width="160" height="30" as="geometry" />
        </mxCell>
        <mxCell id="wH9C-k489aPXXMVzoPA0-4" value="sign_up" style="swimlane;fontStyle=1;childLayout=stackLayout;horizontal=1;startSize=26;horizontalStack=0;resizeParent=1;resizeParentMax=0;resizeLast=0;collapsible=1;marginBottom=0;align=center;fontSize=14;" vertex="1" parent="1">
          <mxGeometry x="460" y="190" width="160" height="146" as="geometry" />
        </mxCell>
        <mxCell id="wH9C-k489aPXXMVzoPA0-5" value="username" style="text;strokeColor=none;fillColor=none;spacingLeft=4;spacingRight=4;overflow=hidden;rotatable=0;points=[[0,0.5],[1,0.5]];portConstraint=eastwest;fontSize=12;" vertex="1" parent="wH9C-k489aPXXMVzoPA0-4">
          <mxGeometry y="26" width="160" height="30" as="geometry" />
        </mxCell>
        <mxCell id="wH9C-k489aPXXMVzoPA0-6" value="nama" style="text;strokeColor=none;fillColor=none;spacingLeft=4;spacingRight=4;overflow=hidden;rotatable=0;points=[[0,0.5],[1,0.5]];portConstraint=eastwest;fontSize=12;" vertex="1" parent="wH9C-k489aPXXMVzoPA0-4">
          <mxGeometry y="56" width="160" height="30" as="geometry" />
        </mxCell>
        <mxCell id="wH9C-k489aPXXMVzoPA0-7" value="email" style="text;strokeColor=none;fillColor=none;spacingLeft=4;spacingRight=4;overflow=hidden;rotatable=0;points=[[0,0.5],[1,0.5]];portConstraint=eastwest;fontSize=12;" vertex="1" parent="wH9C-k489aPXXMVzoPA0-4">
          <mxGeometry y="86" width="160" height="30" as="geometry" />
        </mxCell>
        <mxCell id="wH9C-k489aPXXMVzoPA0-8" value="password" style="text;strokeColor=none;fillColor=none;spacingLeft=4;spacingRight=4;overflow=hidden;rotatable=0;points=[[0,0.5],[1,0.5]];portConstraint=eastwest;fontSize=12;" vertex="1" parent="wH9C-k489aPXXMVzoPA0-4">
          <mxGeometry y="116" width="160" height="30" as="geometry" />
        </mxCell>
        <mxCell id="wH9C-k489aPXXMVzoPA0-9" value="" style="endArrow=classic;html=1;exitX=1;exitY=0;exitDx=0;exitDy=0;entryX=0.01;entryY=-0.144;entryDx=0;entryDy=0;entryPerimeter=0;endFill=1;" edge="1" parent="1" target="wH9C-k489aPXXMVzoPA0-3">
          <mxGeometry width="50" height="50" relative="1" as="geometry">
            <mxPoint x="90.96194077712562" y="230.25126265847075" as="sourcePoint" />
            <mxPoint x="500" y="160" as="targetPoint" />
          </mxGeometry>
        </mxCell>
        <mxCell id="wH9C-k489aPXXMVzoPA0-10" value="&lt;font style=&quot;font-size: 14px&quot;&gt;punya akun&lt;/font&gt;" style="edgeLabel;html=1;align=center;verticalAlign=middle;resizable=0;points=[];" vertex="1" connectable="0" parent="wH9C-k489aPXXMVzoPA0-9">
          <mxGeometry x="-0.1495" relative="1" as="geometry">
            <mxPoint as="offset" />
          </mxGeometry>
        </mxCell>
        <mxCell id="wH9C-k489aPXXMVzoPA0-11" value="" style="endArrow=classic;html=1;entryX=0;entryY=0.5;entryDx=0;entryDy=0;endFill=1;" edge="1" parent="1" target="wH9C-k489aPXXMVzoPA0-6">
          <mxGeometry width="50" height="50" relative="1" as="geometry">
            <mxPoint x="100" y="255" as="sourcePoint" />
            <mxPoint x="500" y="160" as="targetPoint" />
          </mxGeometry>
        </mxCell>
        <mxCell id="wH9C-k489aPXXMVzoPA0-12" value="&lt;font style=&quot;font-size: 14px&quot;&gt;belum punya akun&lt;/font&gt;" style="edgeLabel;html=1;align=center;verticalAlign=middle;resizable=0;points=[];" vertex="1" connectable="0" parent="wH9C-k489aPXXMVzoPA0-11">
          <mxGeometry x="-0.4405" y="1" relative="1" as="geometry">
            <mxPoint x="35" y="-1" as="offset" />
          </mxGeometry>
        </mxCell>
        <mxCell id="wH9C-k489aPXXMVzoPA0-13" value="" style="endArrow=classic;html=1;endFill=1;entryX=0.369;entryY=0.009;entryDx=0;entryDy=0;entryPerimeter=0;" edge="1" parent="1" target="wH9C-k489aPXXMVzoPA0-25">
          <mxGeometry width="50" height="50" relative="1" as="geometry">
            <mxPoint x="250" y="270" as="sourcePoint" />
            <mxPoint x="530" y="630" as="targetPoint" />
          </mxGeometry>
        </mxCell>
        <mxCell id="wH9C-k489aPXXMVzoPA0-14" value="" style="endArrow=classic;html=1;entryX=0.523;entryY=1.122;entryDx=0;entryDy=0;entryPerimeter=0;exitX=0.461;exitY=0;exitDx=0;exitDy=0;exitPerimeter=0;endFill=1;" edge="1" parent="1" source="wH9C-k489aPXXMVzoPA0-4" target="wH9C-k489aPXXMVzoPA0-3">
          <mxGeometry width="50" height="50" relative="1" as="geometry">
            <mxPoint x="450" y="310" as="sourcePoint" />
            <mxPoint x="500" y="260" as="targetPoint" />
          </mxGeometry>
        </mxCell>
        <mxCell id="wH9C-k489aPXXMVzoPA0-15" value="&lt;font style=&quot;font-size: 14px&quot;&gt;punya akun&lt;/font&gt;" style="edgeLabel;html=1;align=center;verticalAlign=middle;resizable=0;points=[];" vertex="1" connectable="0" parent="wH9C-k489aPXXMVzoPA0-14">
          <mxGeometry x="0.3031" y="1" relative="1" as="geometry">
            <mxPoint as="offset" />
          </mxGeometry>
        </mxCell>
        <mxCell id="wH9C-k489aPXXMVzoPA0-16" value="" style="endArrow=classic;html=1;exitX=0.998;exitY=0.789;exitDx=0;exitDy=0;exitPerimeter=0;curved=1;entryX=0.415;entryY=0.007;entryDx=0;entryDy=0;entryPerimeter=0;" edge="1" parent="1" source="wH9C-k489aPXXMVzoPA0-2" target="wH9C-k489aPXXMVzoPA0-18">
          <mxGeometry width="50" height="50" relative="1" as="geometry">
            <mxPoint x="330" y="240" as="sourcePoint" />
            <mxPoint x="969" y="270" as="targetPoint" />
            <Array as="points">
              <mxPoint x="790" y="150" />
            </Array>
          </mxGeometry>
        </mxCell>
        <mxCell id="wH9C-k489aPXXMVzoPA0-17" value="&lt;font style=&quot;font-size: 14px&quot;&gt;langsung ke home&lt;/font&gt;" style="edgeLabel;html=1;align=center;verticalAlign=middle;resizable=0;points=[];" vertex="1" connectable="0" parent="wH9C-k489aPXXMVzoPA0-16">
          <mxGeometry x="0.1901" y="-28" relative="1" as="geometry">
            <mxPoint y="-21.94" as="offset" />
          </mxGeometry>
        </mxCell>
        <mxCell id="wH9C-k489aPXXMVzoPA0-18" value="home(sign_in)" style="swimlane;fontStyle=1;childLayout=stackLayout;horizontal=1;startSize=26;horizontalStack=0;resizeParent=1;resizeParentMax=0;resizeLast=0;collapsible=1;marginBottom=0;align=center;fontSize=14;" vertex="1" parent="1">
          <mxGeometry x="910" y="280" width="230" height="206" as="geometry" />
        </mxCell>
        <mxCell id="wH9C-k489aPXXMVzoPA0-19" value="tulis_review" style="text;strokeColor=none;fillColor=none;spacingLeft=4;spacingRight=4;overflow=hidden;rotatable=0;points=[[0,0.5],[1,0.5]];portConstraint=eastwest;fontSize=12;" vertex="1" parent="wH9C-k489aPXXMVzoPA0-18">
          <mxGeometry y="26" width="230" height="30" as="geometry" />
        </mxCell>
        <mxCell id="wH9C-k489aPXXMVzoPA0-20" value="lihat_review" style="text;strokeColor=none;fillColor=none;spacingLeft=4;spacingRight=4;overflow=hidden;rotatable=0;points=[[0,0.5],[1,0.5]];portConstraint=eastwest;fontSize=12;" vertex="1" parent="wH9C-k489aPXXMVzoPA0-18">
          <mxGeometry y="56" width="230" height="30" as="geometry" />
        </mxCell>
        <mxCell id="wH9C-k489aPXXMVzoPA0-21" value="nambahin_resto" style="text;strokeColor=none;fillColor=none;spacingLeft=4;spacingRight=4;overflow=hidden;rotatable=0;points=[[0,0.5],[1,0.5]];portConstraint=eastwest;fontSize=12;" vertex="1" parent="wH9C-k489aPXXMVzoPA0-18">
          <mxGeometry y="86" width="230" height="30" as="geometry" />
        </mxCell>
        <mxCell id="wH9C-k489aPXXMVzoPA0-22" value="cari_resto" style="text;strokeColor=none;fillColor=none;spacingLeft=4;spacingRight=4;overflow=hidden;rotatable=0;points=[[0,0.5],[1,0.5]];portConstraint=eastwest;fontSize=12;" vertex="1" parent="wH9C-k489aPXXMVzoPA0-18">
          <mxGeometry y="116" width="230" height="30" as="geometry" />
        </mxCell>
        <mxCell id="wH9C-k489aPXXMVzoPA0-23" value="kasih_vote" style="text;strokeColor=none;fillColor=none;spacingLeft=4;spacingRight=4;overflow=hidden;rotatable=0;points=[[0,0.5],[1,0.5]];portConstraint=eastwest;fontSize=12;fontStyle=0" vertex="1" parent="wH9C-k489aPXXMVzoPA0-18">
          <mxGeometry y="146" width="230" height="30" as="geometry" />
        </mxCell>
        <mxCell id="wH9C-k489aPXXMVzoPA0-24" value="edit_profile" style="text;strokeColor=none;fillColor=none;spacingLeft=4;spacingRight=4;overflow=hidden;rotatable=0;points=[[0,0.5],[1,0.5]];portConstraint=eastwest;fontSize=12;fontStyle=0" vertex="1" parent="wH9C-k489aPXXMVzoPA0-18">
          <mxGeometry y="176" width="230" height="30" as="geometry" />
        </mxCell>
        <mxCell id="wH9C-k489aPXXMVzoPA0-25" value="home(langsung)" style="swimlane;fontStyle=1;childLayout=stackLayout;horizontal=1;startSize=26;horizontalStack=0;resizeParent=1;resizeParentMax=0;resizeLast=0;collapsible=1;marginBottom=0;align=center;fontSize=14;" vertex="1" parent="1">
          <mxGeometry x="410" y="555" width="160" height="116" as="geometry" />
        </mxCell>
        <mxCell id="wH9C-k489aPXXMVzoPA0-26" value="tulis_review" style="text;strokeColor=none;fillColor=none;spacingLeft=4;spacingRight=4;overflow=hidden;rotatable=0;points=[[0,0.5],[1,0.5]];portConstraint=eastwest;fontSize=12;" vertex="1" parent="wH9C-k489aPXXMVzoPA0-25">
          <mxGeometry y="26" width="160" height="30" as="geometry" />
        </mxCell>
        <mxCell id="wH9C-k489aPXXMVzoPA0-27" value="lihat_review" style="text;strokeColor=none;fillColor=none;spacingLeft=4;spacingRight=4;overflow=hidden;rotatable=0;points=[[0,0.5],[1,0.5]];portConstraint=eastwest;fontSize=12;" vertex="1" parent="wH9C-k489aPXXMVzoPA0-25">
          <mxGeometry y="56" width="160" height="30" as="geometry" />
        </mxCell>
        <mxCell id="wH9C-k489aPXXMVzoPA0-28" value="cari_resto" style="text;strokeColor=none;fillColor=none;spacingLeft=4;spacingRight=4;overflow=hidden;rotatable=0;points=[[0,0.5],[1,0.5]];portConstraint=eastwest;fontSize=12;" vertex="1" parent="wH9C-k489aPXXMVzoPA0-25">
          <mxGeometry y="86" width="160" height="30" as="geometry" />
        </mxCell>
        <mxCell id="wH9C-k489aPXXMVzoPA0-29" value="vote" style="swimlane;fontStyle=1;childLayout=stackLayout;horizontal=1;startSize=26;horizontalStack=0;resizeParent=1;resizeParentMax=0;resizeLast=0;collapsible=1;marginBottom=0;align=center;fontSize=14;" vertex="1" parent="1">
          <mxGeometry x="1220" y="310" width="160" height="86" as="geometry" />
        </mxCell>
        <mxCell id="wH9C-k489aPXXMVzoPA0-30" value="upvote" style="text;strokeColor=none;fillColor=none;spacingLeft=4;spacingRight=4;overflow=hidden;rotatable=0;points=[[0,0.5],[1,0.5]];portConstraint=eastwest;fontSize=12;" vertex="1" parent="wH9C-k489aPXXMVzoPA0-29">
          <mxGeometry y="26" width="160" height="30" as="geometry" />
        </mxCell>
        <mxCell id="wH9C-k489aPXXMVzoPA0-31" value="downvote" style="text;strokeColor=none;fillColor=none;spacingLeft=4;spacingRight=4;overflow=hidden;rotatable=0;points=[[0,0.5],[1,0.5]];portConstraint=eastwest;fontSize=12;" vertex="1" parent="wH9C-k489aPXXMVzoPA0-29">
          <mxGeometry y="56" width="160" height="30" as="geometry" />
        </mxCell>
        <mxCell id="wH9C-k489aPXXMVzoPA0-32" value="" style="endArrow=none;html=1;rounded=0;entryX=-0.015;entryY=0.159;entryDx=0;entryDy=0;entryPerimeter=0;exitX=1;exitY=0.5;exitDx=0;exitDy=0;" edge="1" parent="1" source="wH9C-k489aPXXMVzoPA0-23" target="wH9C-k489aPXXMVzoPA0-29">
          <mxGeometry relative="1" as="geometry">
            <mxPoint x="1170" y="440" as="sourcePoint" />
            <mxPoint x="1180" y="200" as="targetPoint" />
            <Array as="points">
              <mxPoint x="1170" y="440" />
              <mxPoint x="1170" y="324" />
            </Array>
          </mxGeometry>
        </mxCell>
        <mxCell id="wH9C-k489aPXXMVzoPA0-33" value="profile" style="swimlane;fontStyle=1;childLayout=stackLayout;horizontal=1;startSize=26;horizontalStack=0;resizeParent=1;resizeParentMax=0;resizeLast=0;collapsible=1;marginBottom=0;align=center;fontSize=14;" vertex="1" parent="1">
          <mxGeometry x="1250" y="540" width="200" height="146" as="geometry" />
        </mxCell>
        <mxCell id="wH9C-k489aPXXMVzoPA0-34" value="name" style="text;strokeColor=none;fillColor=none;spacingLeft=4;spacingRight=4;overflow=hidden;rotatable=0;points=[[0,0.5],[1,0.5]];portConstraint=eastwest;fontSize=12;" vertex="1" parent="wH9C-k489aPXXMVzoPA0-33">
          <mxGeometry y="26" width="200" height="30" as="geometry" />
        </mxCell>
        <mxCell id="wH9C-k489aPXXMVzoPA0-35" value="no_telp" style="text;strokeColor=none;fillColor=none;spacingLeft=4;spacingRight=4;overflow=hidden;rotatable=0;points=[[0,0.5],[1,0.5]];portConstraint=eastwest;fontSize=12;" vertex="1" parent="wH9C-k489aPXXMVzoPA0-33">
          <mxGeometry y="56" width="200" height="30" as="geometry" />
        </mxCell>
        <mxCell id="wH9C-k489aPXXMVzoPA0-36" value="tanggal_lahir" style="text;strokeColor=none;fillColor=none;spacingLeft=4;spacingRight=4;overflow=hidden;rotatable=0;points=[[0,0.5],[1,0.5]];portConstraint=eastwest;fontSize=12;" vertex="1" parent="wH9C-k489aPXXMVzoPA0-33">
          <mxGeometry y="86" width="200" height="30" as="geometry" />
        </mxCell>
        <mxCell id="wH9C-k489aPXXMVzoPA0-37" value="change_password" style="text;strokeColor=none;fillColor=none;spacingLeft=4;spacingRight=4;overflow=hidden;rotatable=0;points=[[0,0.5],[1,0.5]];portConstraint=eastwest;fontSize=12;" vertex="1" parent="wH9C-k489aPXXMVzoPA0-33">
          <mxGeometry y="116" width="200" height="30" as="geometry" />
        </mxCell>
        <mxCell id="wH9C-k489aPXXMVzoPA0-38" value="" style="endArrow=none;html=1;exitX=1;exitY=0.5;exitDx=0;exitDy=0;entryX=0.005;entryY=0.116;entryDx=0;entryDy=0;entryPerimeter=0;" edge="1" parent="1" source="wH9C-k489aPXXMVzoPA0-24" target="wH9C-k489aPXXMVzoPA0-33">
          <mxGeometry width="50" height="50" relative="1" as="geometry">
            <mxPoint x="1010" y="650" as="sourcePoint" />
            <mxPoint x="1210" y="560" as="targetPoint" />
            <Array as="points">
              <mxPoint x="1210" y="470" />
              <mxPoint x="1210" y="557" />
            </Array>
          </mxGeometry>
        </mxCell>
        <mxCell id="wH9C-k489aPXXMVzoPA0-39" value="&lt;font style=&quot;font-size: 18px&quot;&gt;User&lt;/font&gt;" style="shape=umlActor;verticalLabelPosition=bottom;verticalAlign=top;html=1;outlineConnect=0;" vertex="1" parent="1">
          <mxGeometry x="30" y="190" width="50" height="100" as="geometry" />
        </mxCell>
      </root>
    </mxGraphModel>
  </diagram>
</mxfile>
